<?xml version="1.0" encoding="UTF-8" standalone="no"?>
<!-- Created with Inkscape (http://www.inkscape.org/) -->

<svg
   xmlns:dc="http://purl.org/dc/elements/1.1/"
   xmlns:cc="http://creativecommons.org/ns#"
   xmlns:rdf="http://www.w3.org/1999/02/22-rdf-syntax-ns#"
   xmlns:svg="http://www.w3.org/2000/svg"
   xmlns="http://www.w3.org/2000/svg"
   xmlns:sodipodi="http://sodipodi.sourceforge.net/DTD/sodipodi-0.dtd"
   xmlns:inkscape="http://www.inkscape.org/namespaces/inkscape"
   width="4.6210318cm"
   height="1.4732387cm"
   viewBox="0 0 163.73734 52.20137"
   id="svg2"
   version="1.1"
   inkscape:version="0.91 r13725"
   sodipodi:docname="impl.svg">
  <defs
     id="defs4" />
  <sodipodi:namedview
     id="base"
     pagecolor="#ffffff"
     bordercolor="#666666"
     borderopacity="1.0"
     inkscape:pageopacity="0.0"
     inkscape:pageshadow="2"
     inkscape:zoom="2.8284271"
     inkscape:cx="84.31506"
     inkscape:cy="3.2999293"
     inkscape:document-units="px"
     inkscape:current-layer="layer1"
     showgrid="false"
     units="cm"
     inkscape:window-width="1366"
     inkscape:window-height="706"
     inkscape:window-x="0"
     inkscape:window-y="33"
     inkscape:window-maximized="1"
     fit-margin-top="0"
     fit-margin-left="0"
     fit-margin-right="0"
     fit-margin-bottom="0" />
  <metadata
     id="metadata7">
    <rdf:RDF>
      <cc:Work
         rdf:about="">
        <dc:format>image/svg+xml</dc:format>
        <dc:type
           rdf:resource="http://purl.org/dc/dcmitype/StillImage" />
        <dc:title></dc:title>
      </cc:Work>
    </rdf:RDF>
  </metadata>
  <g
     inkscape:label="Layer 1"
     inkscape:groupmode="layer"
     id="layer1"
     transform="translate(0.27305637,-974.83307)">
    <rect
       style="fill:none;fill-rule:evenodd;stroke:#000000;stroke-width:0.5;stroke-linecap:butt;stroke-linejoin:miter;stroke-opacity:1"
       id="rect3336"
       width="20"
       height="51.70137"
       x="23.214277"
       y="975.08307" />
    <text
       xml:space="preserve"
       style="font-style:normal;font-variant:normal;font-weight:normal;font-stretch:normal;font-size:8.75px;line-height:125%;font-family:'Latin Modern Sans';-inkscape-font-specification:'Latin Modern Sans';text-align:center;letter-spacing:0px;word-spacing:0px;text-anchor:middle;fill:#000000;fill-opacity:1;stroke:none;stroke-width:0.5;stroke-linecap:butt;stroke-linejoin:miter;stroke-opacity:1"
       x="-1001.0265"
       y="36.1521"
       id="text3338"
       sodipodi:linespacing="125%"
       transform="matrix(0,-1,1,0,0,0)"><tspan
         sodipodi:role="line"
         id="tspan3340"
         x="-1001.0265"
         y="36.1521">Transdutor</tspan></text>
    <g
       id="g3364"
       transform="translate(0,-4)"
       style="stroke-width:0.5">
      <path
         inkscape:connector-curvature="0"
         id="path3342"
         d="m 47.999992,1011.8623 30.5,0 0,0"
         style="fill:none;fill-rule:evenodd;stroke:#000000;stroke-width:0.5;stroke-linecap:butt;stroke-linejoin:miter;stroke-opacity:1" />
      <path
         style="fill:none;fill-rule:evenodd;stroke:#000000;stroke-width:0.5;stroke-linecap:butt;stroke-linejoin:miter;stroke-opacity:1"
         d="m 47.999992,1011.8623 30.5,0 0,0"
         id="path3344"
         inkscape:connector-curvature="0" />
      <path
         inkscape:connector-curvature="0"
         id="path3346"
         d="m 47.999992,999.8623 30.5,0 0,0"
         style="fill:none;fill-rule:evenodd;stroke:#000000;stroke-width:0.5;stroke-linecap:butt;stroke-linejoin:miter;stroke-opacity:1" />
      <path
         inkscape:connector-curvature="0"
         id="path3348"
         d="m 49.528702,1005.9282 c 0.01753,-0.146 -0.05141,-0.3524 0.05832,-0.4928 0.02829,-0.036 0.09206,-0.051 0.116652,-0.09 0.01738,-0.026 0,-0.06 0,-0.09 0.01944,-0.031 0.03421,-0.062 0.05832,-0.09 0.01525,-0.018 0.03889,-0.031 0.05833,-0.045 0.01944,-0.015 0.03374,-0.035 0.05833,-0.045 0.01739,-0.01 0.03889,0 0.05833,0 0.01944,0 0.04963,-0.013 0.05832,0 0.01739,0.026 -0.0064,0.06 0,0.09 0.02635,0.1214 0.0903,0.2369 0.116652,0.3583 0.0064,0.03 -0.0123,0.061 0,0.09 0.0276,0.063 0.113235,0.045 0.174977,0.045 0.01944,0 0.03889,0 0.05833,0 0.01944,0 0.04458,0.01 0.05833,0 0.08803,-0.067 0.15289,-0.151 0.233303,-0.224 0.133497,-0.1212 0.271542,-0.2394 0.40828,-0.3584 0.154893,-0.1349 0.320357,-0.2627 0.466606,-0.4032 0.07622,-0.074 0.29549,-0.3613 0.40828,-0.448 0.03074,-0.024 0.08048,-0.026 0.116651,-0.045 0.02288,-0.011 0.03374,-0.036 0.05833,-0.045 0.01738,-0.01 0.04458,0.011 0.05832,0 0.01375,-0.01 -0.01375,-0.034 0,-0.045 0.01375,-0.01 0.04963,-0.014 0.05833,0 0.01739,0.026 0,0.059 0,0.09 0,0.045 -0.01144,0.09 0,0.1344 0.0085,0.033 0.04458,0.059 0.05833,0.09 0.0062,0.014 -0.01375,0.034 0,0.045 0.01375,0.011 0.04963,0.014 0.05833,0 0.01738,-0.026 -0.0094,-0.061 0,-0.09 0.01055,-0.032 0.04778,-0.058 0.05832,-0.09 0.0094,-0.029 0,-0.059 0,-0.09 0.01944,-0.031 0.04458,-0.059 0.05833,-0.09 0.0062,-0.015 -0.0087,-0.032 0,-0.045 0.0123,-0.019 0.04603,-0.025 0.05833,-0.045 0.0087,-0.013 -0.01375,-0.034 0,-0.045 0.01375,-0.01 0.03889,0 0.05833,0 0.01944,0 0.03889,0 0.05833,0 0.01944,0 0.05299,-0.014 0.05833,0 0.324043,0.8711 -0.460619,-0.496 0.349954,0.9408 0.313741,0.4819 0.496908,0.7412 0.758234,1.2096 0.08249,0.1478 0.170846,0.2944 0.233303,0.4479 0.07055,0.1735 0.04869,0.3636 0.116651,0.5376 0.02498,0.063 0.09556,0.1144 0.116652,0.1793 0.01886,0.058 0,0.1193 0,0.1791 0,0.031 -0.0123,0.061 0,0.09 0.0087,0.02 0.04963,0.024 0.05833,0.045 0.0123,0.028 -0.0123,0.061 0,0.09 0.0087,0.02 0.04603,0.025 0.05832,0.045 0.0087,0.014 -0.0087,0.032 0,0.045 0.0123,0.019 0.04963,0.064 0.05833,0.045 0.02459,-0.057 -0.0051,-0.1195 0,-0.1792 0.01429,-0.1645 -0.0022,-0.3345 0.05833,-0.4927 0.13549,-0.3539 0.339516,-0.6902 0.524931,-1.0304 0.164647,-0.3021 0.366573,-0.5919 0.524931,-0.896 0.186211,-0.3576 0.337313,-0.7874 0.466606,-1.1647 0.0408,-0.1191 0.0726,-0.2401 0.116652,-0.3583 0.03378,-0.091 0.0843,-0.1778 0.116651,-0.2689 0.211149,-0.5947 -0.06032,0.05 0.116651,-0.3584 0.01944,-0.045 0.03083,-0.092 0.05833,-0.1343 0.211888,-0.3255 0.0163,0.025 0.233303,-0.224 0.01079,-0.012 -0.01375,-0.034 0,-0.045 0.0019,0 0.160831,0 0.174977,0 0.02627,0 0.157227,-0.01 0.174977,0 0.07136,0.027 0.07403,0.091 0.116652,0.1344 0.08134,0.083 0.206932,0.1426 0.291628,0.224 0.109921,0.1055 0.153472,0.1909 0.233303,0.3135 0.03889,0.059 0.06679,0.1245 0.116651,0.1792 0.08708,0.096 0.199047,0.1763 0.291629,0.2688 0.101972,0.1018 0.189657,0.2118 0.291628,0.3136 0.09258,0.092 0.2074,0.1717 0.291629,0.2688 0.07234,0.083 0.105855,0.1837 0.174977,0.2687 0.02914,0.036 0.07776,0.06 0.116651,0.09 0.01139,0.01 0.07374,0.077 0.116652,0.045 0.07104,-0.054 0.02732,-0.1001 0.116651,-0.1343 0.01739,-0.01 0.05299,-0.014 0.05833,0 0.03777,0.1015 0.02952,0.2103 0.05833,0.3136 0.08794,0.3151 0.191796,0.6276 0.291628,0.9408 0.289984,0.9094 0.326453,1.3379 0.933212,2.1055 0.16668,0.2108 0.447561,0.4352 0.758234,0.5376 0.02675,0.01 0.304695,0 0.349954,0 0.05833,0 0.119644,0.014 0.174977,0 0.02608,-0.01 0.03374,-0.036 0.05833,-0.045 0.155535,0 -0.01944,0.015 0.05833,-0.045 0.01375,-0.01 0.04458,0.01 0.05833,0 0.01375,-0.01 0,-0.031 0,-0.045 0,-0.082 -0.01443,-0.1912 0,-0.2688 0.01134,-0.061 0.03889,-0.1194 0.05833,-0.1791 0,-0.1046 -0.0076,-0.2093 0,-0.3136 0.04501,-0.6223 0.232827,-1.2303 0.40828,-1.8367 0.05627,-0.1945 0.128577,-0.3864 0.174977,-0.5825 8e-5,-2e-4 0.116371,-0.8046 0.116651,-0.8063 0.01705,-0.1048 0.04691,-0.2083 0.05833,-0.3136 0.0081,-0.074 0,-0.1493 0,-0.224 0,-0.1494 0,-0.2986 0,-0.4479 0,-0.075 -0.01739,-0.1506 0,-0.224 0.05204,-0.2199 0.172663,-0.3625 0.349954,-0.5376 0.05065,-0.05 0.122172,-0.086 0.174978,-0.1344 0.04488,-0.042 0.06709,-0.096 0.116651,-0.1345 0.03074,-0.024 0.07776,-0.03 0.116651,-0.045 0.03889,-0.015 0.07541,-0.034 0.116652,-0.045 0.0128,0 0.224632,0 0.233303,0 0.09484,0.036 0.224982,0.3361 0.233302,0.3585 0.04925,0.1322 0.06867,0.2705 0.116652,0.4031 0.04937,0.1366 0.124307,0.2669 0.174977,0.4032 0.06606,0.1776 0.110136,0.3597 0.174977,0.5376 0.0713,0.1956 0.169167,0.3853 0.233303,0.5823 0.05272,0.162 0.07402,0.3292 0.116651,0.4929 0.131906,0.5065 0.05443,0.2608 0.233303,0.6272 0.02481,0.051 0.03374,0.1472 0.116652,0.1791 0.01738,0.01 0.03889,0 0.05832,0 0.01944,0 0.03889,0 0.05833,0 0.01944,0 0.0511,0.014 0.05833,0 0.03681,-0.071 0.03562,-0.1498 0.05832,-0.224 0.05508,-0.1798 0.0968,-0.3628 0.174978,-0.5375 0.35982,-0.804 0.336903,-0.7805 0.874885,-1.344 0.0024,0 0.262443,-0.2687 0.349954,-0.3136 0.01618,-0.01 0.03889,0 0.05833,0 0.01944,0 0.03889,0 0.05833,0 0.01944,0 0.03889,0 0.05833,0 0.03889,0 0.0843,-0.017 0.116651,0 0.09151,0.047 0.161729,0.1151 0.233303,0.1792 0.278645,0.2496 0.531062,0.5165 0.81656,0.7616 0.375949,0.3227 0.780898,0.6248 1.166514,0.9407 0.197675,0.1619 0.392933,0.3258 0.583257,0.4929 0.04857,0.042 0.30182,0.3092 0.40828,0.3583 0.03334,0.015 0.07776,0 0.116651,0 0.09721,0 0.194419,0 0.291629,0 0.01944,0 0.03889,0 0.05833,0 0.01944,0 0.04963,-0.014 0.05832,0 0.05499,0.085 0.0636,0.1836 0.116652,0.2689 0.462386,0.7425 0.665626,0.9114 1.224839,1.6574 0.143232,0.1911 0.279905,0.3852 0.40828,0.5824 0.08563,0.1315 0.154068,0.2693 0.233303,0.4031 0.01799,0.031 0.04458,0.059 0.05833,0.09 0.0062,0.015 -0.01375,0.034 0,0.045 0.01375,0.01 0.05833,0.015 0.05833,0 0,-0.02 -0.04603,-0.025 -0.05833,-0.045 -0.0087,-0.013 0,-0.03 0,-0.045 0,-0.015 0,-0.031 0,-0.045 0,-0.1642 0,-0.3285 0,-0.4927 0,-0.1344 0,-0.2688 0,-0.4032 0,-0.1194 -0.01035,-0.2392 0,-0.3584 0.01159,-0.1337 0.07517,-0.3942 0.116651,-0.5376 0.01739,-0.06 0.04699,-0.1182 0.05833,-0.1791 0,-0.3418 -0.02608,0.035 0.05833,-0.2241 0.0094,-0.029 0,-0.059 0,-0.09 0,-0.015 -0.0087,-0.032 0,-0.045 0.0123,-0.019 0.04603,-0.025 0.05833,-0.045 0.0087,-0.013 0,-0.031 0,-0.045 0,-0.031 -0.0094,-0.061 0,-0.09 0.01055,-0.032 0.04218,-0.059 0.05833,-0.09 0.02284,-0.044 0.03549,-0.091 0.05833,-0.1344 0.01614,-0.032 0.04218,-0.059 0.05833,-0.09 0.02284,-0.044 0.02669,-0.094 0.05833,-0.1345 0.04244,-0.054 0.116652,-0.09 0.174977,-0.1344 0.05833,-0.045 0.116652,-0.09 0.174978,-0.1343 0.03889,-0.031 0.0709,-0.066 0.116651,-0.09 0.08803,-0.045 0.31161,-0.1197 0.40828,-0.1344 0.03813,-0.01 0.07776,0 0.116651,0 0.09721,0 0.194419,0 0.291629,0 0.233303,0 0.466606,0 0.699908,0 0.01944,0 0.03889,0 0.05833,0 0.01944,0 0.05218,0.014 0.05833,0 0.01844,-0.042 0,-0.09 0,-0.1344 0,-0.1194 0,-0.239 0,-0.3584 0,-0.062 -0.03062,-0.1451 0.05833,-0.1792 0.01739,-0.01 0.04094,0.01 0.05832,0 0.04919,-0.019 0.06747,-0.071 0.116652,-0.09 0.01739,-0.01 0.04094,0.01 0.05832,0 0.02459,-0.01 0.03889,-0.031 0.05833,-0.045 0.03889,-0.031 0.07266,-0.064 0.116651,-0.09 0.06956,-0.04 0.160959,-0.053 0.233303,-0.09 0.05309,-0.027 0.123281,-0.1145 0.174977,-0.1343 0.07776,-0.031 0.05833,0.045 0.05833,-0.045"
         style="fill:none;fill-rule:evenodd;stroke:#0000ff;stroke-width:0.5;stroke-linecap:butt;stroke-linejoin:miter;stroke-opacity:1" />
    </g>
    <path
       style="color:#000000;font-style:normal;font-variant:normal;font-weight:normal;font-stretch:normal;font-size:medium;line-height:normal;font-family:sans-serif;text-indent:0;text-align:start;text-decoration:none;text-decoration-line:none;text-decoration-style:solid;text-decoration-color:#000000;letter-spacing:normal;word-spacing:normal;text-transform:none;direction:ltr;block-progression:tb;writing-mode:lr-tb;baseline-shift:baseline;text-anchor:start;white-space:normal;clip-rule:nonzero;display:inline;overflow:visible;visibility:visible;opacity:1;isolation:auto;mix-blend-mode:normal;color-interpolation:sRGB;color-interpolation-filters:linearRGB;solid-color:#000000;solid-opacity:1;fill:#0000ff;fill-opacity:1;fill-rule:nonzero;stroke:none;stroke-width:0.5;stroke-linecap:butt;stroke-linejoin:miter;stroke-miterlimit:4;stroke-dasharray:none;stroke-dashoffset:0;stroke-opacity:1;color-rendering:auto;image-rendering:auto;shape-rendering:auto;text-rendering:auto;enable-background:accumulate"
       d="m 28.992188,21.076172 0,0.505859 c 8.820581,1.049518 15.660156,8.536613 15.660156,17.640625 0,9.104041 -6.839575,16.592819 -15.660156,17.642578 l 0,0.50586 c 9.093454,-1.053098 16.160156,-8.773408 16.160156,-18.148438 0,-9.37502 -7.066702,-17.093625 -16.160156,-18.146484 z m 0,5.714844 0,0.505859 c 5.684254,1.00391 10.001953,5.951963 10.001953,11.925781 0,5.973845 -4.317699,10.923493 -10.001953,11.927735 l 0,0.505859 c 5.957859,-1.011466 10.501953,-6.188679 10.501953,-12.433594 0,-6.244905 -4.544094,-11.420499 -10.501953,-12.43164 z m 0,6.171875 0,0.533203 c 2.330066,0.862237 3.992187,3.094425 3.992187,5.726562 0,2.63213 -1.662121,4.865753 -3.992187,5.728516 l 0,0.533203 c 2.609186,-0.886242 4.492187,-3.354858 4.492187,-6.261719 0,-2.906885 -1.883001,-5.374035 -4.492187,-6.259765 z"
       transform="translate(-29.265252,961.39801)"
       id="path3350"
       inkscape:connector-curvature="0" />
    <rect
       y="975.08307"
       x="83.214279"
       height="51.70137"
       width="20"
       id="rect3358"
       style="fill:none;fill-rule:evenodd;stroke:#000000;stroke-width:0.5;stroke-linecap:butt;stroke-linejoin:miter;stroke-opacity:1" />
    <text
       transform="matrix(0,-1,1,0,0,0)"
       sodipodi:linespacing="125%"
       id="text3360"
       y="96.1521"
       x="-1000.9098"
       style="font-style:normal;font-variant:normal;font-weight:normal;font-stretch:normal;font-size:8.75px;line-height:125%;font-family:'Latin Modern Sans';-inkscape-font-specification:'Latin Modern Sans';text-align:center;letter-spacing:0px;word-spacing:0px;text-anchor:middle;fill:#000000;fill-opacity:1;stroke:none;stroke-width:0.5;stroke-linecap:butt;stroke-linejoin:miter;stroke-opacity:1"
       xml:space="preserve"><tspan
         y="96.1521"
         x="-1000.9098"
         id="tspan3362"
         sodipodi:role="line">Captura</tspan></text>
    <g
       transform="translate(60,-4)"
       id="g3375"
       style="stroke-width:0.5">
      <path
         style="fill:none;fill-rule:evenodd;stroke:#000000;stroke-width:0.5;stroke-linecap:butt;stroke-linejoin:miter;stroke-opacity:1"
         d="m 47.999992,1011.8623 30.5,0 0,0"
         id="path3377"
         inkscape:connector-curvature="0" />
      <path
         inkscape:connector-curvature="0"
         id="path3379"
         d="m 47.999992,1011.8623 30.5,0 0,0"
         style="fill:none;fill-rule:evenodd;stroke:#000000;stroke-width:0.5;stroke-linecap:butt;stroke-linejoin:miter;stroke-opacity:1" />
      <path
         style="fill:none;fill-rule:evenodd;stroke:#000000;stroke-width:0.5;stroke-linecap:butt;stroke-linejoin:miter;stroke-opacity:1"
         d="m 47.999992,999.8623 30.5,0 0,0"
         id="path3381"
         inkscape:connector-curvature="0" />
      <path
         style="color:#000000;font-style:normal;font-variant:normal;font-weight:normal;font-stretch:normal;font-size:medium;line-height:normal;font-family:sans-serif;text-indent:0;text-align:start;text-decoration:none;text-decoration-line:none;text-decoration-style:solid;text-decoration-color:#000000;letter-spacing:normal;word-spacing:normal;text-transform:none;direction:ltr;block-progression:tb;writing-mode:lr-tb;baseline-shift:baseline;text-anchor:start;white-space:normal;clip-rule:nonzero;display:inline;overflow:visible;visibility:visible;opacity:1;isolation:auto;mix-blend-mode:normal;color-interpolation:sRGB;color-interpolation-filters:linearRGB;solid-color:#000000;solid-opacity:1;fill:#0000ff;fill-opacity:1;fill-rule:evenodd;stroke:none;stroke-width:0.5;stroke-linecap:butt;stroke-linejoin:miter;stroke-miterlimit:4;stroke-dasharray:0.99999994, 0.99999994;stroke-dashoffset:0;stroke-opacity:1;color-rendering:auto;image-rendering:auto;shape-rendering:auto;text-rendering:auto;enable-background:accumulate"
         d="m 51,1004.3613 1,0 0,-1 -1,0 z m 2,0 1,0 0,-1 -1,0 z m 4,0 1,0 0,-1 -1,0 z m 2,0 1,0 0,-1 -1,0 z m 4,0 1,0 0,-1 -1,0 z m 6,0 1,0 0,-1 -1,0 z m 2,0 1,0 0,-1 -1,0 z m 4,0 0.5,0 0,-1 -0.5,0 z"
         id="path3391"
         inkscape:connector-curvature="0"
         sodipodi:nodetypes="cccccccccccccccccccccccccccccccccccccccc" />
      <path
         style="fill:none;fill-rule:evenodd;stroke:#0000ff;stroke-width:0.5;stroke-linecap:butt;stroke-linejoin:miter;stroke-miterlimit:4;stroke-dasharray:1, 1;stroke-dashoffset:0;stroke-opacity:1"
         d="m 50.999992,1007.8623 24.5,0 0,0"
         id="path3393"
         inkscape:connector-curvature="0" />
    </g>
    <rect
       style="fill:none;fill-rule:evenodd;stroke:#000000;stroke-width:0.5;stroke-linecap:butt;stroke-linejoin:miter;stroke-opacity:1"
       id="rect3385"
       width="20"
       height="51.70137"
       x="143.21428"
       y="975.08307" />
    <text
       xml:space="preserve"
       style="font-style:normal;font-variant:normal;font-weight:normal;font-stretch:normal;font-size:8.75px;line-height:125%;font-family:'Latin Modern Sans';-inkscape-font-specification:'Latin Modern Sans';text-align:center;letter-spacing:0px;word-spacing:0px;text-anchor:middle;fill:#000000;fill-opacity:1;stroke:none;stroke-width:0.5;stroke-linecap:butt;stroke-linejoin:miter;stroke-opacity:1"
       x="-1001.2094"
       y="156.1521"
       id="text3387"
       sodipodi:linespacing="125%"
       transform="matrix(0,-1,1,0,0,0)"><tspan
         sodipodi:role="line"
         id="tspan3389"
         x="-1001.2094"
         y="156.1521">Exibição</tspan></text>
  </g>
</svg>
