<?xml version="1.0" encoding="UTF-8" standalone="no"?>
<!-- Created with Inkscape (http://www.inkscape.org/) -->

<svg
   xmlns:dc="http://purl.org/dc/elements/1.1/"
   xmlns:cc="http://creativecommons.org/ns#"
   xmlns:rdf="http://www.w3.org/1999/02/22-rdf-syntax-ns#"
   xmlns:svg="http://www.w3.org/2000/svg"
   xmlns="http://www.w3.org/2000/svg"
   xmlns:sodipodi="http://sodipodi.sourceforge.net/DTD/sodipodi-0.dtd"
   xmlns:inkscape="http://www.inkscape.org/namespaces/inkscape"
   width="48"
   height="48"
   id="svg3352"
   version="1.1"
   inkscape:version="0.91 r13725"
   viewBox="0 0 48 48"
   inkscape:export-filename="/home/camargo/github/instrumentation-camera/res/shoot-icon.png"
   inkscape:export-xdpi="90"
   inkscape:export-ydpi="90"
   sodipodi:docname="shoot-icon.svg">
  <defs
     id="defs3354" />
  <sodipodi:namedview
     id="base"
     pagecolor="#ffffff"
     bordercolor="#666666"
     borderopacity="1.0"
     inkscape:pageopacity="0.0"
     inkscape:pageshadow="2"
     inkscape:zoom="5.6568542"
     inkscape:cx="-10.997567"
     inkscape:cy="9.9295975"
     inkscape:current-layer="layer1"
     showgrid="false"
     inkscape:grid-bbox="true"
     inkscape:document-units="px"
     inkscape:window-width="1920"
     inkscape:window-height="1007"
     inkscape:window-x="0"
     inkscape:window-y="36"
     inkscape:window-maximized="1">
    <inkscape:grid
       type="xygrid"
       id="grid3372" />
  </sodipodi:namedview>
  <metadata
     id="metadata3357">
    <rdf:RDF>
      <cc:Work
         rdf:about="">
        <dc:format>image/svg+xml</dc:format>
        <dc:type
           rdf:resource="http://purl.org/dc/dcmitype/StillImage" />
        <dc:title></dc:title>
      </cc:Work>
    </rdf:RDF>
  </metadata>
  <g
     id="layer1"
     inkscape:label="Layer 1"
     inkscape:groupmode="layer">
    <circle
       style="fill:#000000;fill-rule:evenodd;stroke:#000000;stroke-width:0.969697px;stroke-linecap:butt;stroke-linejoin:miter;stroke-opacity:1;opacity:1"
       id="path3360"
       cx="24"
       cy="24"
       r="23.515152" />
    <path
       style="opacity:1;fill:#ffffff"
       d="m 32.40625,17.9375 c -0.277,0 -0.5,0.223 -0.5,0.5 l 0,1.355469 -18.394531,0 C 11.566418,19.792969 10,21.359388 10,23.304688 l 0,11.183593 C 10,36.433581 11.566418,38 13.511719,38 L 34,38 l 1,0 3.488281,0 C 40.433581,38 42,36.433581 42,34.488281 l 0,-11.183593 c 0,-1.9453 -1.566419,-3.511719 -3.511719,-3.511719 l -0.06641,0 c -0.0037,-0.01478 -0.0098,-0.0283 -0.01367,-0.04297 l -1.501953,0 0,-1.3125 c 0,-0.277 -0.223,-0.5 -0.5,-0.5 z M 25,25 c 2.761424,0 5,2.238576 5,5 0,2.761424 -2.238576,5 -5,5 -2.761424,0 -5,-2.238576 -5,-5 0,-2.761424 2.238576,-5 5,-5 z"
       id="rect3362"
       inkscape:connector-curvature="0"
       sodipodi:nodetypes="sscssssccsssscccssssssss" />
    <rect
       style="opacity:1;fill:#ffffff"
       id="rect3384"
       width="6"
       height="2"
       x="3"
       y="20"
       ry="0.5" />
    <rect
       ry="0.5"
       y="-12.303302"
       x="10.752156"
       height="2"
       width="6"
       id="rect3386"
       style="opacity:1;fill:#ffffff"
       transform="matrix(0,1,-1,0,0,0)"
       inkscape:transform-center-x="-0.17677669"
       inkscape:transform-center-y="-6.8942911" />
    <rect
       inkscape:transform-center-y="-5.3351051"
       inkscape:transform-center-x="4.3702583"
       transform="matrix(0.65330786,0.75709236,-0.75709236,0.65330786,0,0)"
       style="opacity:1;fill:#ffffff"
       id="rect3388"
       width="6"
       height="2"
       x="13.006022"
       y="3.8879023"
       ry="0.5" />
  </g>
</svg>
