<?xml version="1.0" encoding="UTF-8"?>
<!DOCTYPE svg PUBLIC "-//W3C//DTD SVG 1.1//EN" "http://www.w3.org/Graphics/SVG/1.1/DTD/svg11.dtd">
<svg width="201mm" height="148mm" viewBox="0 0 20100 14800" version="1.1" baseProfile="tiny" xmlns="http://www.w3.org/2000/svg" stroke-width="28.222" stroke-linejoin="round" xml:space="preserve">
 <path fill="rgb(255,255,255)" stroke="none" d="M 10053,14765 L 4,14765 4,0 20101,0 20101,14765 10053,14765 Z"/>
 <path fill="none" stroke="rgb(179,179,179)" stroke-linejoin="round" d="M 7837,13821 L 1254,13821 1254,495 14420,495 14420,13821 7837,13821 Z"/>
 <path fill="none" stroke="rgb(179,179,179)" stroke-linejoin="round" d="M 1254,494 L 1254,13820"/>
 <path fill="none" stroke="rgb(179,179,179)" stroke-linejoin="round" d="M 2717,494 L 2717,13820"/>
 <path fill="none" stroke="rgb(179,179,179)" stroke-linejoin="round" d="M 4180,494 L 4180,13820"/>
 <path fill="none" stroke="rgb(179,179,179)" stroke-linejoin="round" d="M 5643,494 L 5643,13820"/>
 <path fill="none" stroke="rgb(179,179,179)" stroke-linejoin="round" d="M 7106,494 L 7106,13820"/>
 <path fill="none" stroke="rgb(179,179,179)" stroke-linejoin="round" d="M 8569,494 L 8569,13820"/>
 <path fill="none" stroke="rgb(179,179,179)" stroke-linejoin="round" d="M 10032,494 L 10032,13820"/>
 <path fill="none" stroke="rgb(179,179,179)" stroke-linejoin="round" d="M 11494,494 L 11494,13820"/>
 <path fill="none" stroke="rgb(179,179,179)" stroke-linejoin="round" d="M 12957,494 L 12957,13820"/>
 <path fill="none" stroke="rgb(179,179,179)" stroke-linejoin="round" d="M 14420,494 L 14420,13820"/>
 <path fill="none" stroke="rgb(179,179,179)" stroke-linejoin="round" d="M 14420,13820 L 1254,13820"/>
 <path fill="none" stroke="rgb(179,179,179)" stroke-linejoin="round" d="M 14420,12339 L 1254,12339"/>
 <path fill="none" stroke="rgb(179,179,179)" stroke-linejoin="round" d="M 14420,10858 L 1254,10858"/>
 <path fill="none" stroke="rgb(179,179,179)" stroke-linejoin="round" d="M 14420,9377 L 1254,9377"/>
 <path fill="none" stroke="rgb(179,179,179)" stroke-linejoin="round" d="M 14420,7896 L 1254,7896"/>
 <path fill="none" stroke="rgb(179,179,179)" stroke-linejoin="round" d="M 14420,6417 L 1254,6417"/>
 <path fill="none" stroke="rgb(179,179,179)" stroke-linejoin="round" d="M 14420,4936 L 1254,4936"/>
 <path fill="none" stroke="rgb(179,179,179)" stroke-linejoin="round" d="M 14420,3455 L 1254,3455"/>
 <path fill="none" stroke="rgb(179,179,179)" stroke-linejoin="round" d="M 14420,1974 L 1254,1974"/>
 <path fill="none" stroke="rgb(179,179,179)" stroke-linejoin="round" d="M 14420,494 L 1254,494"/>
 <path fill="none" stroke="rgb(179,179,179)" stroke-linejoin="round" d="M 1254,13970 L 1254,13820"/>
 <path fill="none" stroke="rgb(179,179,179)" stroke-linejoin="round" d="M 1254,13970 L 1254,13820"/>
 <path fill="none" stroke="rgb(179,179,179)" stroke-linejoin="round" d="M 2717,13970 L 2717,13820"/>
 <path fill="none" stroke="rgb(179,179,179)" stroke-linejoin="round" d="M 2717,13970 L 2717,13820"/>
 <path fill="none" stroke="rgb(179,179,179)" stroke-linejoin="round" d="M 4180,13970 L 4180,13820"/>
 <path fill="none" stroke="rgb(179,179,179)" stroke-linejoin="round" d="M 4180,13970 L 4180,13820"/>
 <path fill="none" stroke="rgb(179,179,179)" stroke-linejoin="round" d="M 5643,13970 L 5643,13820"/>
 <path fill="none" stroke="rgb(179,179,179)" stroke-linejoin="round" d="M 5643,13970 L 5643,13820"/>
 <path fill="none" stroke="rgb(179,179,179)" stroke-linejoin="round" d="M 7106,13970 L 7106,13820"/>
 <path fill="none" stroke="rgb(179,179,179)" stroke-linejoin="round" d="M 7106,13970 L 7106,13820"/>
 <path fill="none" stroke="rgb(179,179,179)" stroke-linejoin="round" d="M 8569,13970 L 8569,13820"/>
 <path fill="none" stroke="rgb(179,179,179)" stroke-linejoin="round" d="M 8569,13970 L 8569,13820"/>
 <path fill="none" stroke="rgb(179,179,179)" stroke-linejoin="round" d="M 10032,13970 L 10032,13820"/>
 <path fill="none" stroke="rgb(179,179,179)" stroke-linejoin="round" d="M 10032,13970 L 10032,13820"/>
 <path fill="none" stroke="rgb(179,179,179)" stroke-linejoin="round" d="M 11494,13970 L 11494,13820"/>
 <path fill="none" stroke="rgb(179,179,179)" stroke-linejoin="round" d="M 11494,13970 L 11494,13820"/>
 <path fill="none" stroke="rgb(179,179,179)" stroke-linejoin="round" d="M 12957,13970 L 12957,13820"/>
 <path fill="none" stroke="rgb(179,179,179)" stroke-linejoin="round" d="M 12957,13970 L 12957,13820"/>
 <path fill="none" stroke="rgb(179,179,179)" stroke-linejoin="round" d="M 14420,13970 L 14420,13820"/>
 <path fill="none" stroke="rgb(179,179,179)" stroke-linejoin="round" d="M 14420,13970 L 14420,13820"/>
 <path fill="none" stroke="rgb(179,179,179)" stroke-linejoin="round" d="M 1254,13820 L 14420,13820"/>
 <path fill="none" stroke="rgb(179,179,179)" stroke-linejoin="round" d="M 1104,13820 L 1254,13820"/>
 <path fill="none" stroke="rgb(179,179,179)" stroke-linejoin="round" d="M 1104,13820 L 1254,13820"/>
 <path fill="none" stroke="rgb(179,179,179)" stroke-linejoin="round" d="M 1104,12339 L 1254,12339"/>
 <path fill="none" stroke="rgb(179,179,179)" stroke-linejoin="round" d="M 1104,12339 L 1254,12339"/>
 <path fill="none" stroke="rgb(179,179,179)" stroke-linejoin="round" d="M 1104,10858 L 1254,10858"/>
 <path fill="none" stroke="rgb(179,179,179)" stroke-linejoin="round" d="M 1104,10858 L 1254,10858"/>
 <path fill="none" stroke="rgb(179,179,179)" stroke-linejoin="round" d="M 1104,9377 L 1254,9377"/>
 <path fill="none" stroke="rgb(179,179,179)" stroke-linejoin="round" d="M 1104,9377 L 1254,9377"/>
 <path fill="none" stroke="rgb(179,179,179)" stroke-linejoin="round" d="M 1104,7896 L 1254,7896"/>
 <path fill="none" stroke="rgb(179,179,179)" stroke-linejoin="round" d="M 1104,7896 L 1254,7896"/>
 <path fill="none" stroke="rgb(179,179,179)" stroke-linejoin="round" d="M 1104,6417 L 1254,6417"/>
 <path fill="none" stroke="rgb(179,179,179)" stroke-linejoin="round" d="M 1104,6417 L 1254,6417"/>
 <path fill="none" stroke="rgb(179,179,179)" stroke-linejoin="round" d="M 1104,4936 L 1254,4936"/>
 <path fill="none" stroke="rgb(179,179,179)" stroke-linejoin="round" d="M 1104,4936 L 1254,4936"/>
 <path fill="none" stroke="rgb(179,179,179)" stroke-linejoin="round" d="M 1104,3455 L 1254,3455"/>
 <path fill="none" stroke="rgb(179,179,179)" stroke-linejoin="round" d="M 1104,3455 L 1254,3455"/>
 <path fill="none" stroke="rgb(179,179,179)" stroke-linejoin="round" d="M 1104,1974 L 1254,1974"/>
 <path fill="none" stroke="rgb(179,179,179)" stroke-linejoin="round" d="M 1104,1974 L 1254,1974"/>
 <path fill="none" stroke="rgb(179,179,179)" stroke-linejoin="round" d="M 1104,494 L 1254,494"/>
 <path fill="none" stroke="rgb(179,179,179)" stroke-linejoin="round" d="M 1104,494 L 1254,494"/>
 <path fill="none" stroke="rgb(179,179,179)" stroke-linejoin="round" d="M 1254,13820 L 1254,494"/>
 <path fill="none" stroke="rgb(0,69,134)" stroke-width="80" stroke-linejoin="round" d="M 1714,13349 L 2068,12991 3329,11715 4743,10286 3365,11680 7381,7619 9154,5827 11347,3609 13028,1909"/>
 <path fill="none" stroke="rgb(255,211,32)" stroke-width="80" stroke-linejoin="round" d="M 1714,13338 L 2068,12998 3329,11709 4743,10303 3365,11687 7381,7622 9154,5809 11347,3603 13028,1900"/>
 <text class="TextShape"><tspan class="TextParagraph" font-family="Liberation Sans" font-size="353px" font-weight="400"><tspan class="TextPosition" x="1154" y="14394"/><tspan class="TextPosition" x="1154" y="14394"><tspan fill="rgb(0,0,0)" stroke="none">0</tspan></tspan></tspan></text>
 <text class="TextShape"><tspan class="TextParagraph" font-family="Liberation Sans" font-size="353px" font-weight="400"><tspan class="TextPosition" x="2418" y="14394"/><tspan class="TextPosition" x="2418" y="14394"><tspan fill="rgb(0,0,0)" stroke="none">200</tspan></tspan></tspan></text>
 <text class="TextShape"><tspan class="TextParagraph" font-family="Liberation Sans" font-size="353px" font-weight="400"><tspan class="TextPosition" x="3881" y="14394"/><tspan class="TextPosition" x="3881" y="14394"><tspan fill="rgb(0,0,0)" stroke="none">400</tspan></tspan></tspan></text>
 <text class="TextShape"><tspan class="TextParagraph" font-family="Liberation Sans" font-size="353px" font-weight="400"><tspan class="TextPosition" x="5344" y="14394"/><tspan class="TextPosition" x="5344" y="14394"><tspan fill="rgb(0,0,0)" stroke="none">600</tspan></tspan></tspan></text>
 <text class="TextShape"><tspan class="TextParagraph" font-family="Liberation Sans" font-size="353px" font-weight="400"><tspan class="TextPosition" x="6807" y="14394"/><tspan class="TextPosition" x="6807" y="14394"><tspan fill="rgb(0,0,0)" stroke="none">800</tspan></tspan></tspan></text>
 <text class="TextShape"><tspan class="TextParagraph" font-family="Liberation Sans" font-size="353px" font-weight="400"><tspan class="TextPosition" x="8170" y="14394"/><tspan class="TextPosition" x="8170" y="14394"><tspan fill="rgb(0,0,0)" stroke="none">1000</tspan></tspan></tspan></text>
 <text class="TextShape"><tspan class="TextParagraph" font-family="Liberation Sans" font-size="353px" font-weight="400"><tspan class="TextPosition" x="9633" y="14394"/><tspan class="TextPosition" x="9633" y="14394"><tspan fill="rgb(0,0,0)" stroke="none">1200</tspan></tspan></tspan></text>
 <text class="TextShape"><tspan class="TextParagraph" font-family="Liberation Sans" font-size="353px" font-weight="400"><tspan class="TextPosition" x="11096" y="14394"/><tspan class="TextPosition" x="11096" y="14394"><tspan fill="rgb(0,0,0)" stroke="none">1400</tspan></tspan></tspan></text>
 <text class="TextShape"><tspan class="TextParagraph" font-family="Liberation Sans" font-size="353px" font-weight="400"><tspan class="TextPosition" x="12559" y="14394"/><tspan class="TextPosition" x="12559" y="14394"><tspan fill="rgb(0,0,0)" stroke="none">1600</tspan></tspan></tspan></text>
 <text class="TextShape"><tspan class="TextParagraph" font-family="Liberation Sans" font-size="353px" font-weight="400"><tspan class="TextPosition" x="14022" y="14394"/><tspan class="TextPosition" x="14022" y="14394"><tspan fill="rgb(0,0,0)" stroke="none">1800</tspan></tspan></tspan></text>
 <text class="TextShape"><tspan class="TextParagraph" font-family="Liberation Sans" font-size="353px" font-weight="400"><tspan class="TextPosition" x="805" y="13946"/><tspan class="TextPosition" x="805" y="13946"><tspan fill="rgb(0,0,0)" stroke="none">0</tspan></tspan></tspan></text>
 <text class="TextShape"><tspan class="TextParagraph" font-family="Liberation Sans" font-size="353px" font-weight="400"><tspan class="TextPosition" x="406" y="12465"/><tspan class="TextPosition" x="406" y="12465"><tspan fill="rgb(0,0,0)" stroke="none">200</tspan></tspan></tspan></text>
 <text class="TextShape"><tspan class="TextParagraph" font-family="Liberation Sans" font-size="353px" font-weight="400"><tspan class="TextPosition" x="406" y="10984"/><tspan class="TextPosition" x="406" y="10984"><tspan fill="rgb(0,0,0)" stroke="none">400</tspan></tspan></tspan></text>
 <text class="TextShape"><tspan class="TextParagraph" font-family="Liberation Sans" font-size="353px" font-weight="400"><tspan class="TextPosition" x="406" y="9503"/><tspan class="TextPosition" x="406" y="9503"><tspan fill="rgb(0,0,0)" stroke="none">600</tspan></tspan></tspan></text>
 <text class="TextShape"><tspan class="TextParagraph" font-family="Liberation Sans" font-size="353px" font-weight="400"><tspan class="TextPosition" x="406" y="8022"/><tspan class="TextPosition" x="406" y="8022"><tspan fill="rgb(0,0,0)" stroke="none">800</tspan></tspan></tspan></text>
 <text class="TextShape"><tspan class="TextParagraph" font-family="Liberation Sans" font-size="353px" font-weight="400"><tspan class="TextPosition" x="207" y="6542"/><tspan class="TextPosition" x="207" y="6542"><tspan fill="rgb(0,0,0)" stroke="none">1000</tspan></tspan></tspan></text>
 <text class="TextShape"><tspan class="TextParagraph" font-family="Liberation Sans" font-size="353px" font-weight="400"><tspan class="TextPosition" x="207" y="5061"/><tspan class="TextPosition" x="207" y="5061"><tspan fill="rgb(0,0,0)" stroke="none">1200</tspan></tspan></tspan></text>
 <text class="TextShape"><tspan class="TextParagraph" font-family="Liberation Sans" font-size="353px" font-weight="400"><tspan class="TextPosition" x="207" y="3580"/><tspan class="TextPosition" x="207" y="3580"><tspan fill="rgb(0,0,0)" stroke="none">1400</tspan></tspan></tspan></text>
 <text class="TextShape"><tspan class="TextParagraph" font-family="Liberation Sans" font-size="353px" font-weight="400"><tspan class="TextPosition" x="207" y="2099"/><tspan class="TextPosition" x="207" y="2099"><tspan fill="rgb(0,0,0)" stroke="none">1600</tspan></tspan></tspan></text>
 <text class="TextShape"><tspan class="TextParagraph" font-family="Liberation Sans" font-size="353px" font-weight="400"><tspan class="TextPosition" x="207" y="619"/><tspan class="TextPosition" x="207" y="619"><tspan fill="rgb(0,0,0)" stroke="none">1800</tspan></tspan></tspan></text>
 <path fill="none" stroke="rgb(255,211,32)" stroke-width="80" stroke-linejoin="round" d="M 15536,7132 L 16336,7132"/>
 <path fill="none" stroke="rgb(0,69,134)" stroke-width="80" stroke-linejoin="round" d="M 15536,7631 L 16336,7631"/>
 <text class="TextShape"><tspan class="TextParagraph" font-family="Liberation Sans" font-size="353px" font-weight="400"><tspan class="TextPosition" x="16436" y="7257"/><tspan class="TextPosition" x="16436" y="7257"><tspan fill="rgb(0,0,0)" stroke="none">medidor rpm</tspan></tspan></tspan></text>
 <text class="TextShape"><tspan class="TextParagraph" font-family="Liberation Sans" font-size="353px" font-weight="400"><tspan class="TextPosition" x="16436" y="7756"/><tspan class="TextPosition" x="16436" y="7756"><tspan fill="rgb(0,0,0)" stroke="none">função calibração inv</tspan></tspan></tspan></text>
</svg>